<?xml version="1.0" encoding="utf-8"?>
<!-- Generator: Adobe Illustrator 15.1.0, SVG Export Plug-In . SVG Version: 6.00 Build 0)  -->
<!DOCTYPE svg PUBLIC "-//W3C//DTD SVG 1.1//EN" "http://www.w3.org/Graphics/SVG/1.1/DTD/svg11.dtd">
<svg version="1.1" id="Capa_1" xmlns="http://www.w3.org/2000/svg" xmlns:xlink="http://www.w3.org/1999/xlink" x="0px" y="0px"
	 width="40px" height="40px" viewBox="281.641 404.946 32 32" enable-background="new 281.641 404.946 32 32" xml:space="preserve">
<g>
	<g>
		<path fill="#FFFFFF" d="M304.69,413.895c-0.356-0.357-0.93-0.357-1.285,0l-5.765,5.765l-5.765-5.765
			c-0.357-0.357-0.929-0.357-1.287,0c-0.356,0.357-0.356,0.929,0,1.287l5.765,5.764l-5.765,5.764c-0.356,0.357-0.356,0.93,0,1.286
			c0.176,0.175,0.412,0.27,0.64,0.27s0.464-0.087,0.64-0.27l5.764-5.764l5.765,5.764c0.175,0.175,0.41,0.27,0.639,0.27
			c0.235,0,0.465-0.087,0.641-0.27c0.355-0.356,0.355-0.929,0-1.286l-5.752-5.764l5.765-5.764
			C305.049,414.824,305.049,414.252,304.69,413.895z"/>
	</g>
</g>
</svg>
