<?xml version="1.0" encoding="UTF-8"?>
<!DOCTYPE svg PUBLIC "-//W3C//DTD SVG 1.1//EN" "http://www.w3.org/Graphics/SVG/1.1/DTD/svg11.dtd">
<!-- Creator: CorelDRAW 2019 (64-Bit) -->
<svg xmlns="http://www.w3.org/2000/svg" xml:space="preserve" width="6.7732mm" height="6.7732mm" version="1.1" style="shape-rendering:geometricPrecision; text-rendering:geometricPrecision; image-rendering:optimizeQuality; fill-rule:evenodd; clip-rule:evenodd"
viewBox="0 0 677.32 677.32"
 xmlns:xlink="http://www.w3.org/1999/xlink">
 <defs>
  <style type="text/css">
   <![CDATA[
    .fil0 {fill:#0066B5}
   ]]>
  </style>
 </defs>
 <g id="Слой_x0020_1">
  <metadata id="CorelCorpID_0Corel-Layer"/>
  <path class="fil0" d="M381.37 24.7l186.15 0 0 75.25 -186.15 0 0 -75.25zm-256.11 83.17c5.37,3.59 8.27,10.56 15.84,10.56 9.27,0 21.63,-18.79 29.05,-23.76 7.14,4.79 20.19,23.76 29.04,23.76 11.17,0 22.17,-18.27 30.37,-23.76 7.41,4.97 19.77,23.76 29.04,23.76 7.57,0 10.48,-6.97 15.84,-10.56l0 178.22 -149.18 0 0 -178.22zm-69.97 484.5c0,6.53 5.36,11.88 11.89,11.88l538.62 0c15.63,0 15.63,-23.76 0,-23.76l-538.62 0c-6.53,0 -11.89,5.36 -11.89,11.88zm339.29 -336.64l157.09 0 0 60.73 -157.09 0 0 -60.73zm-269.32 121.46l149.18 0 0 56.76 -149.18 0 0 -56.76zm48.85 -165.02l52.81 0c26.9,0 23.6,-25.09 3.96,-25.09l-62.05 0c-18.65,0 -25.22,25.09 5.28,25.09zm-9.24 -48.85l69.97 0c14.97,0 15.29,-23.76 -1.32,-23.76l-67.33 0c-16.62,0 -16.29,23.76 -1.32,23.76zm1.32 96.37l67.33 0c15.86,0 16.77,-23.76 1.32,-23.76l-69.97 0c-15.53,0 -14.38,23.76 1.32,23.76zm357.76 125.42c0,16.32 15.96,11.88 43.57,11.88 10.91,0 14.02,-23.77 -3.96,-23.77 -17.61,0 -39.61,-3.75 -39.61,11.89zm-151.82 0c0,16.32 15.96,11.88 43.57,11.88 10.91,0 14.02,-23.77 -3.96,-23.77 -17.61,0 -39.61,-3.75 -39.61,11.89zm75.25 60.72c0,15.8 25.63,11.88 40.93,11.88 15.41,0 16.28,-23.76 1.32,-23.76 -19.2,0 -42.25,-4.25 -42.25,11.88zm76.57 -1.32c0,17.09 18.51,13.2 39.61,13.2 16.73,0 17.35,-23.76 1.32,-23.76 -21.72,0 -40.93,-4.11 -40.93,10.56zm-151.82 0c0,17.09 18.51,13.2 39.61,13.2 16.74,0 17.35,-23.76 1.32,-23.76 -21.72,0 -40.93,-4.11 -40.93,10.56zm75.25 -60.72c0,17.9 17.5,13.2 42.25,13.2 14.09,0 15.84,-23.77 -3.96,-23.77 -8.81,0 -26.99,-1.33 -33.03,2.63 -1.57,1.02 -5.26,6.05 -5.26,7.94zm-376.68 -227.67c5.79,-0.55 10.92,3.7 11.47,9.49 0.55,5.79 -3.7,10.92 -9.49,11.47 -7.01,0.66 -12.82,2.5 -17.19,5.77 -3.89,2.91 -6.81,7.17 -8.61,13.02l-24.89 312.56 644.77 0c5.84,0 10.56,4.73 10.56,10.57l0 115.39 -0.02 0c0,0.36 -0.02,0.72 -0.06,1.08 -1.31,12.57 -5.67,22.16 -12.77,29.05 -6.9,6.7 -16.02,10.49 -27.13,11.67 -0.65,0.12 -1.32,0.19 -2,0.19l-597.85 0 0 -0.01c-0.52,0 -1.04,-0.04 -1.57,-0.11 -9.73,-1.47 -18.35,-4.8 -24.95,-11.5 -6.43,-6.53 -10.42,-15.76 -10.9,-28.87 -0.05,-0.4 -0.07,-0.81 -0.07,-1.23l0 -115.66c0,-0.44 0.02,-0.87 0.07,-1.29l25.85 -324.47 0.02 0c0.05,-0.66 0.16,-1.32 0.35,-1.98 3.09,-11.17 8.75,-19.48 16.57,-25.33 7.58,-5.66 16.96,-8.78 27.84,-9.81zm-49.58 373.44l0 105.1c0,0.2 -0.01,0.39 -0.02,0.59 0.28,7.21 2.06,11.86 4.89,14.73 2.78,2.83 7.09,4.41 12.29,5.27l596.98 0c6.28,-0.68 11.17,-2.58 14.52,-5.83 3.4,-3.3 5.58,-8.36 6.42,-15.36l0 -104.5 -635.08 0zm80.38 -162.94l0 77.89c0,7.42 5.78,13.2 13.2,13.2l170.3 0c7.42,0 13.2,-5.78 13.2,-13.2l0 -77.89c0,-6.67 -4.76,-13.2 -11.88,-13.2l-172.94 0c-7.12,0 -11.88,6.53 -11.88,13.2zm269.31 -122.77l0 84.49c0,6.52 5.36,11.88 11.88,11.88l180.87 0c6.52,0 11.88,-5.36 11.88,-11.88l0 -84.49c0,-5.45 -4.44,-11.88 -9.24,-11.88l-186.15 0c-4.8,0 -9.24,6.43 -9.24,11.88zm-269.31 -163.7l0 215.19c0,8.23 3.78,14.52 11.88,14.52l172.94 0c8.11,0 11.88,-6.29 11.88,-14.52l0 -215.19c0,-9.54 -4.25,-14.52 -13.2,-14.52 -7.8,0 -10.68,6.18 -14.32,10.76 -3.29,4.12 -9.21,10.19 -13.4,13 -3.88,-5.8 -20.72,-23.76 -27.72,-23.76 -11.8,0 -21.39,17.75 -30.37,23.76 -3.88,-5.8 -20.71,-23.76 -27.72,-23.76 -8.48,0 -10.87,4.91 -16.17,10.23 -4.59,4.6 -9.4,8.34 -12.87,13.53 -16.4,-10.98 -15.16,-23.76 -29.05,-23.76 -8.1,0 -11.88,6.28 -11.88,14.52zm256.11 -67.33l0 99.01c0,5.16 5.04,11.88 9.24,11.88l95.05 0 0 31.69 -133.33 0c-12.03,0 -15.15,15.8 -4.85,22 6.85,4.13 30.29,1.76 40.49,1.76 69.97,0 139.94,0 209.91,0 38.06,0 48.89,-7.65 50.17,33 0.15,5.11 0.92,13.55 1.68,19.44l18.2 212.83c1.56,20.59 0.62,29.13 17.08,29.13 6.17,0 8.87,-8.5 8.45,-13.79 -0.63,-8.02 -1.67,-14.6 -1.85,-21.86 -0.5,-19.81 -6.8,-67.54 -7.9,-89.79l-11.54 -133.68c-2.65,-20.26 1.26,-37.91 -19.94,-52.67 -3.88,-2.7 -12.49,-6.37 -18.71,-6.37l-124.09 0 0 -31.69 93.73 0c8.1,0 11.88,-6.28 11.88,-14.52l0 -96.37c0,-6.52 -5.36,-11.88 -11.88,-11.88l-212.55 0c-4.2,0 -9.24,6.73 -9.24,11.88z"/>
 </g>
</svg>
