<?xml version="1.0" encoding="UTF-8"?>
<!DOCTYPE svg PUBLIC "-//W3C//DTD SVG 1.1//EN" "http://www.w3.org/Graphics/SVG/1.1/DTD/svg11.dtd">
<!-- Creator: CorelDRAW 2019 (64-Bit) -->
<svg xmlns="http://www.w3.org/2000/svg" xml:space="preserve" width="6.7732mm" height="6.1806mm" version="1.1" style="shape-rendering:geometricPrecision; text-rendering:geometricPrecision; image-rendering:optimizeQuality; fill-rule:evenodd; clip-rule:evenodd"
viewBox="0 0 677.32 618.06"
 xmlns:xlink="http://www.w3.org/1999/xlink">
 <defs>
  <style type="text/css">
   <![CDATA[
    .fil0 {fill:#0066B5}
   ]]>
  </style>
 </defs>
 <g id="Слой_x0020_1">
  <metadata id="CorelCorpID_0Corel-Layer"/>
  <g id="_2358312344352">
   <path class="fil0" d="M21.16 118.53l531.81 0 0 60.85 -531.81 0 0 -60.85zm0 -80.7c0,-7.95 7.93,-15.87 15.88,-15.87l497.41 0c12.96,0 18.52,8.16 18.52,21.16l0 54.24 -531.81 0 0 -59.53zm-21.17 -2.64l0 297.65c0,15.99 16.61,34.4 37.05,34.4l50.27 0 0 -21.17 -47.63 0c-9.92,0 -18.52,-6.45 -18.52,-15.87l0 -128.33 531.81 0 0 31.75 21.17 0 0 -194.47c0,-10.97 -4.47,-19.64 -9.78,-25.94 -4.31,-5.1 -15.76,-12.42 -24.62,-12.42l-505.35 0c-16.89,0 -34.4,17.51 -34.4,34.4z"/>
   <path class="fil0" d="M124.35 574.94l0 -283.11c0,-11.6 6.79,-19.84 18.52,-19.84l494.77 0c9.92,0 18.52,6.45 18.52,15.87l0 292.37c0,7.95 -7.93,15.87 -15.88,15.87l-497.41 0c-13.06,0 -18.52,-8.93 -18.52,-21.16zm-21.17 -285.75l0 289.72c0,21.23 18.15,38.36 34.4,38.36l505.35 0c16.89,0 34.4,-17.51 34.4,-34.4l0 -297.65c0,-8.35 -6.96,-19.95 -11.55,-24.18 -5.52,-5.09 -15.27,-10.22 -25.5,-10.22l-500.06 0c-20.27,0 -37.04,18.03 -37.04,38.37z"/>
   <path class="fil0" d="M179.91 408.25l96.57 0 0 51.59 -96.57 0 0 -51.59zm-21.17 72.76l138.91 0 0 -93.93 -138.91 0 0 93.93z"/>
   <path class="fil0" d="M521.22 532.6c0,-32.33 47.63,-35.53 47.63,1.33 0,14.03 -22.25,30.46 -39.43,14.29 -3.05,-2.86 -8.2,-10.55 -8.2,-15.62zm63.5 -25.13c11.17,0 14.73,0.05 21.43,5.03 18.12,13.48 6.12,47.69 -21.43,41.27 2.11,-7.88 10.77,-20.48 1.78,-41.47 -0.76,-1.79 -1.36,-3.89 -1.78,-4.83zm-84.66 22.49c0,33.63 31.39,52.39 57.7,44.47 2.58,-0.77 9.19,-3.85 10.02,-3.91 2.31,-0.17 12.89,5.74 22.23,5.74 43.66,0 65.86,-56.61 24.39,-83.92 -9.41,-6.19 -21.79,-8.33 -34.42,-5.5 -4.72,1.06 -8.64,4.16 -11.32,4.33 -2.82,0.18 -23.77,-13.18 -46.09,0.45 -11.06,6.75 -22.51,20.67 -22.51,38.34z"/>
   <polygon class="fil0" points="321.46,408.25 542.39,408.25 542.39,387.08 321.46,387.08 "/>
   <polygon class="fil0" points="321.46,449.26 473.6,449.26 473.6,428.09 321.46,428.09 "/>
   <polygon class="fil0" points="209.01,447.94 247.38,447.94 247.38,420.16 209.01,420.16 "/>
   <polygon class="fil0" points="570.17,408.25 612.5,408.25 612.5,387.08 570.17,387.08 "/>
  </g>
 </g>
</svg>
