<?xml version="1.0" encoding="UTF-8"?>
<!DOCTYPE svg PUBLIC "-//W3C//DTD SVG 1.1//EN" "http://www.w3.org/Graphics/SVG/1.1/DTD/svg11.dtd">
<!-- Creator: CorelDRAW 2019 (64-Bit) -->
<svg xmlns="http://www.w3.org/2000/svg" xml:space="preserve" width="5.5878mm" height="6.7732mm" version="1.1" style="shape-rendering:geometricPrecision; text-rendering:geometricPrecision; image-rendering:optimizeQuality; fill-rule:evenodd; clip-rule:evenodd"
viewBox="0 0 558.78 677.32"
 xmlns:xlink="http://www.w3.org/1999/xlink">
 <defs>
  <style type="text/css">
   <![CDATA[
    .fil0 {fill:#0066B5}
   ]]>
  </style>
 </defs>
 <g id="Слой_x0020_1">
  <metadata id="CorelCorpID_0Corel-Layer"/>
  <path class="fil0" d="M314.87 358.63l112.22 0 0 31.68 -112.22 0 0 -31.68zm-131.22 160.41l138.11 0c-4.1,12.09 -6.32,25.03 -6.32,38.5 0,33.08 13.41,63.02 35.08,84.7 0.37,0.36 0.73,0.72 1.1,1.08l-323.55 0c-0.86,0 -1.65,-0.36 -2.23,-0.94 -0.58,-0.58 -0.94,-1.37 -0.94,-2.23l0 -615.86c0,-0.86 0.36,-1.65 0.94,-2.23 0.58,-0.58 1.37,-0.94 2.23,-0.94l445.78 0c0.87,0 1.66,0.36 2.23,0.94 0.58,0.58 0.94,1.37 0.94,2.23l0 420.96c-13.01,-4.84 -27.09,-7.49 -41.8,-7.49 -21.75,0 -42.14,5.79 -59.73,15.93l-193.16 0c-9.72,0 -13.09,19.8 1.32,19.8l166.23 0c-7.53,7.65 -14.04,16.31 -19.32,25.75l-148.23 0c-9.72,0 -13.09,19.8 1.32,19.8zm314.5 -63.44c7.92,4.9 15.22,10.69 21.77,17.24 21.68,21.68 35.09,51.62 35.09,84.7 0,33.08 -13.41,63.02 -35.09,84.7 -21.67,21.68 -51.62,35.08 -84.7,35.08 -19.45,0 -37.83,-4.64 -54.07,-12.87l-353.08 0c-6.7,0 -12.77,-2.73 -17.17,-7.13 -4.4,-4.4 -7.13,-10.48 -7.13,-17.17l0 -615.86c0,-6.69 2.73,-12.77 7.13,-17.17 4.4,-4.39 10.47,-7.12 17.17,-7.12l445.78 0c6.7,0 12.77,2.73 17.17,7.12 4.4,4.4 7.13,10.48 7.13,17.17l0 431.31zm6.84 32.18c-17.86,-17.85 -42.52,-28.9 -69.77,-28.9 -27.24,0 -51.91,11.05 -69.76,28.9 -17.85,17.85 -28.89,42.52 -28.89,69.76 0,27.24 11.04,51.91 28.89,69.76 17.85,17.85 42.52,28.9 69.76,28.9 27.25,0 51.91,-11.05 69.77,-28.9 17.85,-17.85 28.89,-42.52 28.89,-69.76 0,-27.24 -11.04,-51.91 -28.89,-69.76zm-442.3 -14.29l87.14 0c14.08,0 10.46,-19.8 1.32,-19.8l-89.78 0c-9.71,0 -13.08,19.8 1.32,19.8zm3.96 46.21l77.9 0c20.3,0 17.72,-21.12 3.96,-21.12l-84.5 0c-13.73,0 -17.11,21.12 2.64,21.12zm363.08 47.53c-5.67,-3.8 -9.84,-9.18 -14.85,-14.19 -5.71,-5.71 -9.23,-12.21 -18.15,-12.21 -4.37,0 -9.25,6.14 -9.25,10.56 0,5.55 24.86,28.15 31.97,35.37 4.04,4.09 8.66,7.59 14.5,3.27 2.33,-1.72 44.63,-42.8 44.63,-46.56 0,-12.1 -8,-16.98 -19.26,-7.39l-14.57 14.48c-0.19,0.2 -0.45,0.49 -0.64,0.68l-14.38 15.99zm-99.02 -411.93c0,5.22 6,10.57 11.88,10.57l92.43 0c15.9,0 15.51,-21.13 1.32,-21.13l-93.75 0c-5.88,0 -11.88,5.35 -11.88,10.56zm-238.97 -81.85l0 3.96c-14.92,0 -28.31,-0.12 -36.61,18.84 -5.15,11.75 -1.49,25.45 5.85,33.04 23.25,24.04 70.37,-4.83 70.37,22.05 0,11.57 -21.66,7.92 -33.01,7.92 -6.39,0 -15.03,-0.5 -21.14,-0.01 -3.57,0.29 -5.73,1.01 -7.86,2.7 -7.76,6.16 -3.94,18.44 6.55,18.44l15.85 0c0,20.53 21.12,22.31 21.12,0l9.24 0c34.7,0 44.18,-54.99 2.16,-61.57 -11.88,-1.86 -39.27,0.51 -44.11,-0.78 -3.15,-0.84 -6.9,-4.56 -6.9,-8.95 0,-14.81 16.94,-11.88 31.69,-11.88 14.64,0 34.33,3.94 34.33,-9.24 0,-13.23 -14.06,-10.56 -26.41,-10.56 0,-8 0.42,-15.85 -11.88,-15.85 -4.8,0 -9.24,6.44 -9.24,11.89zm258.78 484.54c0,22.39 8.62,42.46 22.75,57.78 35.5,38.51 101.28,32.08 128.85,-10.48 2.64,-4.07 10.79,-18.24 10.79,-23.53 0,-4.61 -5.96,-10.57 -10.56,-10.57 -14.98,0 -4.87,25.41 -43.1,44.04 -24.17,11.77 -50.44,4.84 -68.13,-10.7 -38.98,-34.24 -17.23,-108.59 42.57,-108.59 24.13,0 44.95,14.36 55.05,33.42 3.22,6.08 5.14,16.75 13.61,16.75 4.17,0 10.56,-6.17 10.56,-9.24 0,-13.42 -16.63,-33.47 -25.99,-41.34 -33.95,-28.53 -82.39,-25.45 -112.99,5.33 -11.93,12 -23.41,33.59 -23.41,57.13zm-128.07 -473.98c0,18.49 -4.51,44.89 13.2,44.89l198.04 0c17.76,0 13.21,-23.73 13.21,-44.89 0,-17.99 -25.73,-13.2 -47.53,-13.2 -3.23,0 -4.93,0.69 -6.92,2.32 -7.32,5.97 -2.92,17.48 6.92,17.48l27.72 0 0 18.48 -183.52 0 0 -18.48 109.59 0c13.27,0 14.46,-19.8 0,-19.8l-117.51 0c-6.64,0 -13.2,6.56 -13.2,13.2zm-149.2 483.22l165.04 0 0 17.17 -165.04 0 0 -17.17zm-21.12 -1.32c0,18.68 -3.43,39.61 18.48,39.61l170.32 0c22.32,0 17.17,-19.06 17.17,-46.21 0,-8.26 -7.33,-13.2 -15.85,-13.2l-172.96 0c-12.26,0 -17.16,7.46 -17.16,19.8zm75.26 -207.28l166.35 0 0 31.68 -166.35 0 0 -31.68zm-54.14 0l34.33 0 0 31.68 -34.33 0 0 -31.68zm241.62 -52.81l112.22 0 0 31.68 -112.22 0 0 -31.68zm-187.48 0l166.35 0 0 31.68 -166.35 0 0 -31.68zm-54.14 0l34.33 0 0 31.68 -34.33 0 0 -31.68zm241.62 -54.14l108.26 0c3.04,0 3.96,0.92 3.96,3.97l0 29.04 -112.22 0 0 -33.01zm-187.48 0l166.35 0 0 33.01 -166.35 0 0 -33.01zm-54.14 0l34.33 0 0 33.01 -34.33 0 0 -33.01zm-21.12 -5.28l0 150.52c0,8.24 3.78,14.52 11.88,14.52l369.68 0c7.88,0 13.21,-2.69 13.21,-10.56l0 -158.44c0,-4.82 -3.65,-10.56 -7.92,-10.56l-376.29 0c-8.02,0 -10.56,6.66 -10.56,14.52z"/>
 </g>
</svg>
