<?xml version="1.0" encoding="iso-8859-1"?>
<!-- Generator: Adobe Illustrator 19.0.0, SVG Export Plug-In . SVG Version: 6.00 Build 0)  -->
<svg xmlns="http://www.w3.org/2000/svg" xmlns:xlink="http://www.w3.org/1999/xlink" version="1.1" id="Capa_1" x="0px" y="0px" viewBox="0 0 362.7 362.7" style="enable-background:new 0 0 362.7 362.7;" xml:space="preserve" width="512px" height="512px">
<g>
	<g>
		<path d="M332.95,158.3V53.1c0-2.8-1.6-5.2-4.4-6L185.35,0.3c-1.6-0.4-2.8-0.4-4.4,0c-1.2-0.4-2.8-0.4-4.4,0L34.15,46.7    c-2.8,0.8-4.4,3.2-4.4,6v105.2c0,1.6-4,154.4,148,204.4c0.8,0.4,1.2,0.4,2,0.4h2.8c0.8,0,1.2,0,2-0.4    C336.95,312.3,332.95,159.5,332.95,158.3z M181.75,350.3h-0.8c-142-47.6-138.8-185.6-138.4-192V57.5l138.4-45.2c0,0,0,0,0.4,0    c0,0,0,0,0.4,0l138.4,45.2v100.8C320.15,159.9,323.75,302.3,181.75,350.3z" fill="#0067b6"/>
	</g>
</g>
<g>
	<g>
		<path d="M291.75,71.9l-107.2-36c-0.8-0.4-2-0.4-2.8-0.4s-2,0-2.8,0.4l-107.2,36c-2.4,0.8-4.4,3.2-4.4,6v82    c0,1.2,5.2,118.4,112,159.6c0.8,0.4,1.6,0.4,2.4,0.4s1.6,0,2.4-0.4c106.4-41.2,112-158.4,112-160V77.9    C296.15,75.1,294.15,72.7,291.75,71.9z M283.35,159.9c0,0.8-4.8,108-101.6,147.2c-96.4-39.2-101.6-146.4-101.6-147.2V82.7    l101.6-34l101.6,34V159.9z" fill="#0067b6"/>
	</g>
</g>
<g>
	<g>
		<path d="M257.35,133.1c-2.8-2.4-6.8-2-8.8,0.4l-76.8,92l-49.6-52c-2.4-2.4-6.4-2.8-9.2-0.4c-2.4,2.4-2.8,6.4-0.4,9.2l54.4,57.2    c1.2,1.2,2.8,2,4.8,2c0,0,0,0,0.4,0c2,0,3.6-0.8,4.8-2.4l81.2-97.2C260.55,139.1,260.15,135.1,257.35,133.1z" fill="#0067b6"/>
	</g>
</g>
<g>
</g>
<g>
</g>
<g>
</g>
<g>
</g>
<g>
</g>
<g>
</g>
<g>
</g>
<g>
</g>
<g>
</g>
<g>
</g>
<g>
</g>
<g>
</g>
<g>
</g>
<g>
</g>
<g>
</g>
</svg>
