<?xml version="1.0" encoding="iso-8859-1"?>
<!-- Generator: Adobe Illustrator 19.0.0, SVG Export Plug-In . SVG Version: 6.00 Build 0)  -->
<svg xmlns="http://www.w3.org/2000/svg" xmlns:xlink="http://www.w3.org/1999/xlink" version="1.1" id="Layer_1" x="0px" y="0px" viewBox="0 0 512 512" style="enable-background:new 0 0 512 512;" xml:space="preserve" width="512px" height="512px">
<g>
	<g>
		<path d="M398.136,363.355h-1.749v-6.376c0-32.912-26.776-59.688-59.687-59.688h-39.41v-90.818    c39.75-16.562,66.065-55.674,66.065-99.118C363.355,48.159,315.196,0,256,0S148.645,48.159,148.645,107.355    c0,43.444,26.315,82.555,66.065,99.118v90.818H175.3c-32.911,0-59.687,26.776-59.687,59.688v6.376h-1.749    c-29.393,0-53.305,23.912-53.305,53.304v25.035c0,14.481,11.781,26.263,26.262,26.263h6.771v17.286    c0,14.754,12.003,26.757,26.757,26.757H391.65c14.754,0,26.757-12.003,26.757-26.757v-17.286h6.77    c14.481,0,26.263-11.781,26.263-26.263v-25.035C451.441,387.267,427.529,363.355,398.136,363.355z M165.161,107.355    c0-50.088,40.75-90.839,90.839-90.839s90.839,40.751,90.839,90.839c0,38.434-24.337,72.86-60.559,85.664    c-3.3,1.167-5.505,4.286-5.505,7.786v96.486h-49.548v-96.486c0-3.5-2.206-6.62-5.505-7.786    C189.498,180.215,165.161,145.789,165.161,107.355z M401.892,485.243c0,5.647-4.594,10.241-10.241,10.241H120.349    c-5.647,0-10.241-4.594-10.241-10.241v-17.286h291.785V485.243z M434.925,441.694c0,5.383-4.364,9.747-9.747,9.747H86.821    c-5.382,0-9.746-4.364-9.746-9.746V416.66c0-20.318,16.471-36.789,36.789-36.789h186.139c4.561,0,8.258-3.697,8.258-8.258    s-3.697-8.258-8.258-8.258H132.129v-6.376c0-23.844,19.328-43.172,43.172-43.172H336.7c23.843,0,43.171,19.328,43.171,43.171    v6.377h-43.456c-4.561,0-8.258,3.697-8.258,8.258s3.697,8.258,8.258,8.258h61.722c20.317,0,36.788,16.471,36.788,36.789V441.694z" fill="#FFFFFF"/>
	</g>
</g>
<g>
</g>
<g>
</g>
<g>
</g>
<g>
</g>
<g>
</g>
<g>
</g>
<g>
</g>
<g>
</g>
<g>
</g>
<g>
</g>
<g>
</g>
<g>
</g>
<g>
</g>
<g>
</g>
<g>
</g>
</svg>
