<?xml version="1.0" encoding="UTF-8"?>
<!DOCTYPE svg PUBLIC "-//W3C//DTD SVG 1.1//EN" "http://www.w3.org/Graphics/SVG/1.1/DTD/svg11.dtd">
<!-- Creator: CorelDRAW 2019 (64-Bit) -->
<svg xmlns="http://www.w3.org/2000/svg" xml:space="preserve" width="3.0478mm" height="3.8946mm" version="1.1" style="shape-rendering:geometricPrecision; text-rendering:geometricPrecision; image-rendering:optimizeQuality; fill-rule:evenodd; clip-rule:evenodd"
viewBox="0 0 304.78 389.46"
 xmlns:xlink="http://www.w3.org/1999/xlink">
 <defs>
  <style type="text/css">
   <![CDATA[
    .fil0 {fill:#679898}
    .fil1 {fill:#679898;fill-rule:nonzero}
   ]]>
  </style>
 </defs>
 <g id="Слой_x0020_1">
  <metadata id="CorelCorpID_0Corel-Layer"/>
  <g id="_1928472251472">
   <path class="fil0" d="M96.71 219.92c-1.05,-1.57 -2.29,-1.98 -2.29,-3.81 0,-7.37 14.01,-14.93 19.09,-18.33 -1.32,4.93 -10.42,17.87 -16.8,22.14zm111.48 -52.68c7.64,-1.78 12.22,-0.51 18.32,0 -5.24,9.9 -14.86,5.17 -18.32,0zm-69.48 6.11l17.56 -49.63 18.42 27.38c2.15,2.85 4.94,5.77 6.77,8.5 -2.05,0.99 -32.18,8.15 -42.75,13.75zm14.5 -87.05c-9.28,-6.22 -2.15,-18.28 -1.52,-20.62 6.75,4.96 2.42,16.76 1.52,20.62zm-71.01 129.04c0,7.43 13.28,33.25 36.2,-1.97 15.7,-24.12 5.45,-22.72 27.65,-30.39l45.34 -13.45c3.34,4.98 18.4,15.27 25.96,15.27l3.82 0c13.06,0 23.91,-20.5 11.24,-27.28 -10.8,-5.77 -29.46,-0.97 -36.44,-0.97 -3.77,0 -18.9,-22.31 -20.94,-25.64l-8.83 -14.84c-5.24,-10.13 -6.05,-6.41 -3.9,-16.86 1.76,-8.53 7.66,-30.59 0.62,-39.42 -3.36,-4.22 -4.55,-6.32 -8.94,-6.32 -22.06,0 -15.55,28.52 -10.58,41.88 0.98,2.65 4.14,8.82 4.64,11.23 0.42,2.03 -1.86,8.97 -2.79,12.23 -6.01,21.32 -12.83,38.38 -21.12,58.29 -2.54,6.11 -15.85,7.31 -29.12,18.98 -4.78,4.21 -12.81,11.8 -12.81,19.26z"/>
   <path class="fil0" d="M146.34 355.84l-7.63 0 0 -51.16c9.54,0 18.51,-0.23 25.4,5.9 4.92,4.39 6.97,12.4 6.65,18.47 -0.5,9.41 -2.88,22.11 -12.94,25.28 -2.76,0.87 -7.75,1.51 -11.48,1.51zm-19.09 -58.04l0 66.43c23.94,0 48.01,4.77 54.31,-25.09 3.13,-14.85 -0.57,-28.72 -12.51,-37.32 -10.17,-7.32 -25.18,-6.31 -39.51,-6.31 -1.76,0 -2.29,0.54 -2.29,2.29z"/>
   <path class="fil0" d="M89.84 331.4l-6.87 0 0 -26.72c9.46,0 20.61,-1.39 20.61,12.98 0,9.39 -4.35,13.74 -13.74,13.74zm-18.33 32.83l11.46 0 0 -24.43c12.25,0 24.43,-0.22 30.03,-13.49 4.46,-10.58 0.48,-20.21 -7.86,-26.24 -7.75,-5.61 -23.15,-4.56 -33.63,-4.56l0 68.72z"/>
   <path class="fil0" d="M198.26 297.8l0 66.43 11.45 0 0 -30.54 28.25 0 0 -8.4 -28.25 0 0 -20.61 31.31 0 0 -9.17 -40.47 0c-1.76,0 -2.29,0.54 -2.29,2.29z"/>
   <g>
    <path class="fil1" d="M22.53 0l191.47 0c1.29,0 2.44,0.57 3.21,1.48l83.81 84.44c0.81,0.82 1.22,1.89 1.22,2.96l0.01 280.58c0,5.5 -2.25,10.51 -5.87,14.13 -3.62,3.62 -8.63,5.88 -14.14,5.88l-259.71 0c-5.48,0 -10.49,-2.26 -14.11,-5.88l-0.03 -0.03c-3.62,-3.62 -5.87,-8.62 -5.87,-14.1l0 -349.45c0,-5.51 2.26,-10.52 5.88,-14.14l0.26 -0.24c3.61,-3.48 8.51,-5.63 13.87,-5.63zm189.73 8.42l-189.73 0c-3.1,0 -5.92,1.23 -7.99,3.21l-0.18 0.2c-2.1,2.1 -3.41,4.99 -3.41,8.18l0 349.45c0,3.19 1.3,6.09 3.39,8.17 2.1,2.11 5,3.41 8.19,3.41l259.71 0c3.18,0 6.08,-1.31 8.18,-3.41 2.1,-2.09 3.41,-4.99 3.41,-8.17l0 -278.86 -81.57 -82.18z"/>
    <path class="fil1" d="M209.79 4.21c0,-2.33 1.88,-4.21 4.21,-4.21 2.33,0 4.21,1.88 4.21,4.21l0 80.46 79.83 0c2.33,0 4.21,1.89 4.21,4.21 0,2.33 -1.88,4.22 -4.21,4.22l-84.04 0c-2.33,0 -4.21,-1.89 -4.21,-4.22l0 -84.67z"/>
    <path class="fil1" d="M6.74 273.18c-2.33,0 -4.22,-1.88 -4.22,-4.21 0,-2.33 1.89,-4.21 4.22,-4.21l291.3 0c2.33,0 4.21,1.88 4.21,4.21 0,2.33 -1.88,4.21 -4.21,4.21l-291.3 0z"/>
   </g>
  </g>
 </g>
</svg>
